<svg id="Слой_1" data-name="Слой 1" xmlns="http://www.w3.org/2000/svg" xmlns:xlink="http://www.w3.org/1999/xlink" viewBox="0 0 320 520"><defs><style>.cls-1{fill:#f9f9f9;}.cls-12,.cls-2,.cls-4,.cls-6,.cls-8{fill:none;}.cls-2{stroke-opacity:0.5;stroke-width:1.09px;stroke:url(#Безымянный_градиент);}.cls-3,.cls-5{fill-opacity:0.6;}.cls-3{fill:url(#Безымянный_градиент_2);}.cls-4{stroke-opacity:0.6;stroke-width:1.37px;stroke:url(#Безымянный_градиент_3);}.cls-5{fill:url(#Безымянный_градиент_4);}.cls-6{stroke-opacity:0.7;stroke-width:1.59px;stroke:url(#Безымянный_градиент_5);}.cls-7{fill-opacity:0.7;fill:url(#Безымянный_градиент_6);}.cls-8{stroke-opacity:0.9;stroke-width:1.85px;stroke:url(#Безымянный_градиент_7);}.cls-9{fill-opacity:0.9;fill:url(#Безымянный_градиент_8);}.cls-10{fill:#e71404;}.cls-11{fill:url(#Безымянный_градиент_9);}.cls-12{stroke-opacity:0.8;stroke-width:1.72px;stroke:url(#Безымянный_градиент_10);}.cls-13{fill-opacity:0.8;fill:url(#Безымянный_градиент_11);}</style><linearGradient id="Безымянный_градиент" x1="269.46" y1="347.82" x2="245.39" y2="406.73" gradientTransform="matrix(1, 0, 0, -1, 0, 408)" gradientUnits="userSpaceOnUse"><stop offset="0" stop-color="#ef9c4e"/><stop offset="1" stop-color="#f2c656"/></linearGradient><linearGradient id="Безымянный_градиент_2" x1="260.07" y1="366.04" x2="251.21" y2="394.01" xlink:href="#Безымянный_градиент"/><linearGradient id="Безымянный_градиент_3" x1="29.08" y1="255.79" x2="80.94" y2="316.74" xlink:href="#Безымянный_градиент"/><linearGradient id="Безымянный_градиент_4" x1="60.07" y1="260.98" x2="49.01" y2="310.82" xlink:href="#Безымянный_градиент"/><linearGradient id="Безымянный_градиент_5" x1="243.41" y1="159.38" x2="302.25" y2="231.25" xlink:href="#Безымянный_градиент"/><linearGradient id="Безымянный_градиент_6" x1="251.46" y1="175.3" x2="293.07" y2="217.64" xlink:href="#Безымянный_градиент"/><linearGradient id="Безымянный_градиент_7" x1="294.41" y1="-28.99" x2="254" y2="71.52" xlink:href="#Безымянный_градиент"/><linearGradient id="Безымянный_градиент_8" x1="249.4" y1="-7.47" x2="295.3" y2="44.49" xlink:href="#Безымянный_градиент"/><linearGradient id="Безымянный_градиент_9" x1="159.5" y1="386" x2="159.5" y2="-83" gradientTransform="matrix(1, 0, 0, -1, 0, 408)" gradientUnits="userSpaceOnUse"><stop offset="0" stop-color="#f2c656"/><stop offset="1" stop-color="#ef9c4e"/></linearGradient><linearGradient id="Безымянный_градиент_10" x1="61.04" y1="55.03" x2="27.3" y2="149.55" xlink:href="#Безымянный_градиент"/><linearGradient id="Безымянный_градиент_11" x1="55.39" y1="72.7" x2="31.39" y2="132.38" xlink:href="#Безымянный_градиент"/></defs><rect class="cls-1" y="-113" width="320" height="633"/><path class="cls-1" d="M242.91,10.07a2.71,2.71,0,0,1,2.33-1.47L267.49,8a2.7,2.7,0,0,1,2.38,1.27l12,19.15a2.71,2.71,0,0,1,.1,2.7L271.7,50.82a2.71,2.71,0,0,1-2.33,1.46l-22.24.66a2.75,2.75,0,0,1-2.39-1.28l-12-19.15a2.69,2.69,0,0,1-.11-2.7Z"/><path class="cls-2" d="M245.26,9.15l22.24-.66a2.2,2.2,0,0,1,1.91,1l12,19.15a2.17,2.17,0,0,1,.08,2.16L271.22,50.57a2.2,2.2,0,0,1-1.86,1.17l-22.25.65a2.18,2.18,0,0,1-1.91-1l-12-19.15a2.17,2.17,0,0,1-.09-2.16l10.28-19.74A2.17,2.17,0,0,1,245.26,9.15Z"/><path class="cls-3" d="M250.11,27.9a5.26,5.26,0,0,1,1.94-.66,3.87,3.87,0,0,1,2,.21,5.35,5.35,0,0,1,1.89,1.2A9.29,9.29,0,0,1,257.64,31a8.75,8.75,0,0,1,1.05,2.71,5.63,5.63,0,0,1,0,2.28,4.43,4.43,0,0,1-.84,1.81,5.2,5.2,0,0,1-1.51,1.28,5.82,5.82,0,0,1-1.95.68,4.14,4.14,0,0,1-2-.22,5.58,5.58,0,0,1-1.92-1.22A9.88,9.88,0,0,1,248.76,36a8.72,8.72,0,0,1-1-2.64,5.89,5.89,0,0,1,0-2.3,4.47,4.47,0,0,1,.84-1.82A5.15,5.15,0,0,1,250.11,27.9Zm1,6.74a10.09,10.09,0,0,0,1.24,1.8,4.16,4.16,0,0,0,1.13.94,2.19,2.19,0,0,0,1,.25,2.43,2.43,0,0,0,.9-.28,2.05,2.05,0,0,0,.68-.63,1.8,1.8,0,0,0,.31-1,4.29,4.29,0,0,0-.2-1.45,9.51,9.51,0,0,0-.89-2,9.32,9.32,0,0,0-1.22-1.79,4,4,0,0,0-1.12-.92,1.77,1.77,0,0,0-1-.24,2,2,0,0,0-.89.25,2.13,2.13,0,0,0-.7.64,2,2,0,0,0-.34,1,4.08,4.08,0,0,0,.21,1.45A9.72,9.72,0,0,0,251.1,34.64Zm7.84-11.44,1.86-1,6,10.76-2.24,1.25-4.86-8.68-1.46,2.08-1.48-1.39Z"/><path class="cls-1" d="M69.68,93.58a3.42,3.42,0,0,1,3,1.76l13.6,24.45a3.44,3.44,0,0,1,0,3.4L71.78,147.67a3.43,3.43,0,0,1-3,1.69l-28-.06a3.46,3.46,0,0,1-3-1.76L24.26,123.08a3.41,3.41,0,0,1,0-3.4L38.74,95.2a3.44,3.44,0,0,1,2.95-1.68Z"/><path class="cls-4" d="M72.07,95.67l13.59,24.46a2.72,2.72,0,0,1,0,2.72L71.19,147.33a2.74,2.74,0,0,1-2.36,1.34l-28-.06a2.75,2.75,0,0,1-2.39-1.4l-13.6-24.46a2.75,2.75,0,0,1,0-2.72L39.33,95.55a2.73,2.73,0,0,1,2.36-1.35l28,.06A2.75,2.75,0,0,1,72.07,95.67Z"/><path class="cls-5" d="M44.63,117a6.55,6.55,0,0,1,2.46-.76,4.91,4.91,0,0,1,2.45.33,6.73,6.73,0,0,1,2.33,1.59,11.71,11.71,0,0,1,2.11,3,11.21,11.21,0,0,1,1.21,3.44,7.12,7.12,0,0,1-.1,2.86A5.69,5.69,0,0,1,54,129.66,6.48,6.48,0,0,1,52,131.2a7.1,7.1,0,0,1-2.48.79,5.24,5.24,0,0,1-2.46-.36,7,7,0,0,1-2.36-1.6,12.68,12.68,0,0,1-2.1-3,10.77,10.77,0,0,1-1.16-3.36,7.44,7.44,0,0,1,.1-2.89,5.69,5.69,0,0,1,1.13-2.25A6.19,6.19,0,0,1,44.63,117Zm1,8.5a12.35,12.35,0,0,0,1.49,2.31A5.14,5.14,0,0,0,48.48,129a2.81,2.81,0,0,0,1.29.36,2.94,2.94,0,0,0,1.14-.32,2.48,2.48,0,0,0,.88-.76,2.32,2.32,0,0,0,.43-1.26,5.25,5.25,0,0,0-.2-1.83,12.76,12.76,0,0,0-1-2.52,12.55,12.55,0,0,0-1.47-2.28,4.83,4.83,0,0,0-1.38-1.2,2.13,2.13,0,0,0-1.26-.35,2.46,2.46,0,0,0-1.13.29,2.65,2.65,0,0,0-.9.77,2.48,2.48,0,0,0-.46,1.24,5.53,5.53,0,0,0,.2,1.84A12.13,12.13,0,0,0,45.61,125.46Zm11.44-12.14a4,4,0,0,0-1.2,1,5.75,5.75,0,0,0-.88,1.49l-2.16-1.21a7.15,7.15,0,0,1,1.28-2,7.26,7.26,0,0,1,2.15-1.62,5.62,5.62,0,0,1,2-.66,4.49,4.49,0,0,1,1.84.12,4,4,0,0,1,1.52.85,4.51,4.51,0,0,1,1.13,1.43,6.37,6.37,0,0,1,.56,3.57,22.08,22.08,0,0,1-1.19,4.92l-.7,2,5.5-2.87,1.17,2.25-8.43,4.39-1.52-1.65.94-3c.35-1.11.63-2.07.83-2.88a18,18,0,0,0,.41-2.15,6.52,6.52,0,0,0,0-1.59,3.86,3.86,0,0,0-.4-1.23,2.36,2.36,0,0,0-1.32-1.26A1.91,1.91,0,0,0,57.05,113.32Z"/><path class="cls-1" d="M289.24,179.69a4,4,0,0,1,3.5,2l16.32,28.09a4,4,0,0,1,0,3.94l-16.22,28.73a4,4,0,0,1-3.39,2L257,245a4,4,0,0,1-3.5-2l-16.32-28.08a4,4,0,0,1,0-4l16.22-28.73a4,4,0,0,1,3.39-2Z"/><path class="cls-6" d="M292.05,182.06l16.32,28.08a3.18,3.18,0,0,1,0,3.16L292.17,242a3.14,3.14,0,0,1-2.71,1.61l-32.48.55a3.15,3.15,0,0,1-2.8-1.58l-16.33-28.08a3.18,3.18,0,0,1,0-3.16l16.21-28.73a3.19,3.19,0,0,1,2.72-1.61l32.48-.55A3.19,3.19,0,0,1,292.05,182.06Z"/><path class="cls-7" d="M271.77,198.75a7.62,7.62,0,0,1,2.28,1.94,5.62,5.62,0,0,1,1.21,2.6,7.61,7.61,0,0,1-.1,3.27,13.5,13.5,0,0,1-1.6,3.93,12.85,12.85,0,0,1-2.61,3.34,8.25,8.25,0,0,1-2.85,1.69,6.76,6.76,0,0,1-2.91.31,7.47,7.47,0,0,1-2.72-.94,8.16,8.16,0,0,1-2.32-1.93,6.1,6.1,0,0,1-1.2-2.63A8.49,8.49,0,0,1,259,207a14.62,14.62,0,0,1,1.64-3.93,12.69,12.69,0,0,1,2.55-3.25,8.82,8.82,0,0,1,2.89-1.7,6.63,6.63,0,0,1,2.91-.3A7.22,7.22,0,0,1,271.77,198.75Zm-7.7,6.29a14.69,14.69,0,0,0-1.33,2.89,6.35,6.35,0,0,0-.33,2.12,3.16,3.16,0,0,0,.47,1.49,3.28,3.28,0,0,0,1,.91,2.81,2.81,0,0,0,1.3.38,2.63,2.63,0,0,0,1.49-.36,6.33,6.33,0,0,0,1.67-1.35,14.73,14.73,0,0,0,1.81-2.58,15,15,0,0,0,1.32-2.87,5.93,5.93,0,0,0,.31-2.09,2.55,2.55,0,0,0-.45-1.45,2.93,2.93,0,0,0-1-.93,3,3,0,0,0-1.32-.39,2.78,2.78,0,0,0-1.5.32,6.33,6.33,0,0,0-1.67,1.35A14.65,14.65,0,0,0,264.07,205Zm15.56-.29A7.69,7.69,0,0,1,282,205a10.15,10.15,0,0,1,2.48,1.07,6.78,6.78,0,0,1,1.87,1.5,5.23,5.23,0,0,1,1.05,1.79,4.19,4.19,0,0,1,.28,1.87,4,4,0,0,1-.56,1.82A4.13,4.13,0,0,1,285,215a5.17,5.17,0,0,1-2.6.28,4.59,4.59,0,0,1,1.52,2.63,4.06,4.06,0,0,1-.51,2.9,5.22,5.22,0,0,1-1.63,1.8,4.47,4.47,0,0,1-2.06.72,5.87,5.87,0,0,1-2.32-.21,10.36,10.36,0,0,1-2.43-1,13.43,13.43,0,0,1-2.27-1.63,9.52,9.52,0,0,1-1.56-1.82l2.06-1.92a16,16,0,0,0,1.16,1.43,7,7,0,0,0,1.55,1.15,4.17,4.17,0,0,0,2.39.65,2.4,2.4,0,0,0,1.94-3.2,4,4,0,0,0-1.84-1.85l-1.78-1,1.39-2.42,1.29.74a4,4,0,0,0,2.5.64,2.43,2.43,0,0,0,1.76-1.29,2.07,2.07,0,0,0,.19-1.87,2.74,2.74,0,0,0-1.28-1.46,5.13,5.13,0,0,0-1.42-.56,6.28,6.28,0,0,0-1.66-.09Z"/><path class="cls-1" d="M249.7,351.43a4.63,4.63,0,0,1,4-2.47l37.87-.91a4.68,4.68,0,0,1,4.05,2.19L315.85,383a4.64,4.64,0,0,1,.16,4.59l-17.68,33.51a4.63,4.63,0,0,1-4,2.47l-37.87.91a4.61,4.61,0,0,1-4-2.19l-20.26-32.71a4.66,4.66,0,0,1-.16-4.6Z"/><path class="cls-8" d="M253.7,349.89l37.87-.91a3.71,3.71,0,0,1,3.24,1.75l20.25,32.71a3.69,3.69,0,0,1,.13,3.68l-17.68,33.51a3.73,3.73,0,0,1-3.19,2l-37.87.9a3.69,3.69,0,0,1-3.24-1.75L233,389.05a3.72,3.72,0,0,1-.13-3.68l17.69-33.51A3.69,3.69,0,0,1,253.7,349.89Z"/><path class="cls-9" d="M271,374.29a8.87,8.87,0,0,1,2.77,2.13,6.65,6.65,0,0,1,1.55,3,9,9,0,0,1,.06,3.82,15.75,15.75,0,0,1-1.64,4.66,15.33,15.33,0,0,1-2.86,4,9.73,9.73,0,0,1-3.23,2.13,7.73,7.73,0,0,1-3.37.51,8.59,8.59,0,0,1-3.22-.94,9.59,9.59,0,0,1-2.81-2.12,7.18,7.18,0,0,1-1.54-3,9.71,9.71,0,0,1-.08-3.86A17.25,17.25,0,0,1,258.3,380a14.67,14.67,0,0,1,2.8-3.92,10.06,10.06,0,0,1,3.27-2.14,7.76,7.76,0,0,1,3.37-.52A8.4,8.4,0,0,1,271,374.29ZM262.36,382a17,17,0,0,0-1.39,3.44,7,7,0,0,0-.26,2.48,3.66,3.66,0,0,0,.62,1.71,3.86,3.86,0,0,0,1.24,1,3.39,3.39,0,0,0,1.53.37,3.09,3.09,0,0,0,1.72-.5,7.41,7.41,0,0,0,1.87-1.66,17.39,17.39,0,0,0,2-3.11,16,16,0,0,0,1.37-3.42,6.79,6.79,0,0,0,.25-2.45,2.83,2.83,0,0,0-.61-1.66,3.36,3.36,0,0,0-1.19-1,3.74,3.74,0,0,0-1.56-.39,3.44,3.44,0,0,0-1.74.46,7.09,7.09,0,0,0-1.86,1.67A15.72,15.72,0,0,0,262.36,382Zm30.33,3.72-1.56,3.06-6.56-3.29-2.33,3.52a3.7,3.7,0,0,1,.68.28l.69.35a9.17,9.17,0,0,1,2.21,1.58,6.52,6.52,0,0,1,1.52,2.09,5.51,5.51,0,0,1,.51,2.51,6.63,6.63,0,0,1-.81,2.88,7.37,7.37,0,0,1-1.77,2.28,6.11,6.11,0,0,1-2.44,1.33,7.46,7.46,0,0,1-3.1.21,11.74,11.74,0,0,1-3.67-1.25,12,12,0,0,1-2.45-1.63,13,13,0,0,1-1.69-1.76l2.31-2.46a10.89,10.89,0,0,0,1.3,1.42,7.82,7.82,0,0,0,1.74,1.2,4.88,4.88,0,0,0,3.39.61,3.31,3.31,0,0,0,2.2-1.79,3.1,3.1,0,0,0,.09-3,5.52,5.52,0,0,0-2.5-2.29,12.66,12.66,0,0,0-1.63-.69c-.56-.21-1.11-.39-1.63-.54l6-9.4Z"/><path class="cls-10" d="M34.79,84H32.67V72.69h-6V84H24.54V71H34.79ZM50,77.52a7.4,7.4,0,0,1-.47,2.66,6,6,0,0,1-3.36,3.46,7.41,7.41,0,0,1-5.3,0,6,6,0,0,1-3.36-3.46,7.73,7.73,0,0,1,0-5.31,6,6,0,0,1,3.36-3.48,7.41,7.41,0,0,1,5.3,0,5.94,5.94,0,0,1,2,1.38,6,6,0,0,1,1.32,2.1A7.34,7.34,0,0,1,50,77.52Zm-2.15,0a6.06,6.06,0,0,0-.31-2A4,4,0,0,0,46.72,74a3.75,3.75,0,0,0-1.36-1,4.91,4.91,0,0,0-3.59,0,3.88,3.88,0,0,0-1.37,1,4.16,4.16,0,0,0-.87,1.51,6.7,6.7,0,0,0,0,4,4.25,4.25,0,0,0,.87,1.51,3.85,3.85,0,0,0,1.37.94,5,5,0,0,0,3.59,0,3.73,3.73,0,0,0,1.36-.94,4.08,4.08,0,0,0,.86-1.51A6.08,6.08,0,0,0,47.89,77.52Zm13.46,3.59a.38.38,0,0,1,.29.14l.84.9a5.35,5.35,0,0,1-1.94,1.48,6.8,6.8,0,0,1-2.76.51,6.65,6.65,0,0,1-2.57-.48,5.78,5.78,0,0,1-2-1.37A6.14,6.14,0,0,1,52,80.19a7.87,7.87,0,0,1-.44-2.67A7.63,7.63,0,0,1,52,74.85a6.08,6.08,0,0,1,1.31-2.1,5.89,5.89,0,0,1,2-1.37A6.84,6.84,0,0,1,58,70.9a6.33,6.33,0,0,1,2.47.45,6.15,6.15,0,0,1,1.87,1.21l-.69,1a.91.91,0,0,1-.17.17.46.46,0,0,1-.27.08.79.79,0,0,1-.42-.17,6.76,6.76,0,0,0-.58-.37,4.51,4.51,0,0,0-.89-.37,4.58,4.58,0,0,0-1.33-.17,4.26,4.26,0,0,0-1.7.33A3.7,3.7,0,0,0,54.9,74,4.57,4.57,0,0,0,54,75.49a6.36,6.36,0,0,0-.31,2,5.9,5.9,0,0,0,.33,2,4.26,4.26,0,0,0,.89,1.51,3.88,3.88,0,0,0,1.33.94,4.12,4.12,0,0,0,1.65.33,6.85,6.85,0,0,0,1-.06,3.66,3.66,0,0,0,.79-.19,3.89,3.89,0,0,0,.68-.33,4.55,4.55,0,0,0,.64-.49A.53.53,0,0,1,61.35,81.11Zm11.87-8.32h-4V84h-2.1V72.79H63V71H73.22Zm7.4,6.35-1.8-4.73-.21-.62c-.08-.25-.15-.5-.23-.78a7.32,7.32,0,0,1-.21.78,6.13,6.13,0,0,1-.22.62l-1.78,4.73Zm4,4.86H83a.73.73,0,0,1-.45-.13,1,1,0,0,1-.25-.36l-1.08-2.86H75.59l-1.08,2.86a.85.85,0,0,1-.25.34.67.67,0,0,1-.44.15H72.18l5.14-13h2.13ZM96.81,71V84H94.7V78.23H88.19V84H86.08V71h2.11v5.67H94.7V71Zm15.26,6.48a7.4,7.4,0,0,1-.46,2.66,6.28,6.28,0,0,1-1.33,2.09,6,6,0,0,1-2,1.37,7.38,7.38,0,0,1-5.29,0,5.94,5.94,0,0,1-3.37-3.46,7.73,7.73,0,0,1,0-5.31,6,6,0,0,1,1.32-2.1,6,6,0,0,1,2-1.38,7.38,7.38,0,0,1,5.29,0,5.84,5.84,0,0,1,2,1.38,6.22,6.22,0,0,1,1.33,2.1A7.34,7.34,0,0,1,112.07,77.52Zm-2.15,0a6.33,6.33,0,0,0-.3-2,4.16,4.16,0,0,0-.87-1.51,3.67,3.67,0,0,0-1.36-1,4.91,4.91,0,0,0-3.59,0,3.88,3.88,0,0,0-1.37,1,4.31,4.31,0,0,0-.87,1.51,6.7,6.7,0,0,0,0,4,4.4,4.4,0,0,0,.87,1.51,3.85,3.85,0,0,0,1.37.94,5,5,0,0,0,3.59,0,3.65,3.65,0,0,0,1.36-.94,4.25,4.25,0,0,0,.87-1.51A6.35,6.35,0,0,0,109.92,77.52Zm9.18,4.82a3.7,3.7,0,0,0,1.19-.17,2.12,2.12,0,0,0,.81-.46,1.48,1.48,0,0,0,.44-.67,2.41,2.41,0,0,0,.15-.85,1.77,1.77,0,0,0-.63-1.44,3,3,0,0,0-2-.53h-2.6v4.12Zm-2.61-9.65v4h2.1a3.23,3.23,0,0,0,2-.53,1.79,1.79,0,0,0,.67-1.5,1.81,1.81,0,0,0-.64-1.55,3.25,3.25,0,0,0-2-.47Zm2.2-1.65a8.23,8.23,0,0,1,2.13.24,3.93,3.93,0,0,1,1.44.68,2.5,2.5,0,0,1,.83,1.08,3.56,3.56,0,0,1,.27,1.42,2.67,2.67,0,0,1-.14.89,2.49,2.49,0,0,1-.43.8,3.15,3.15,0,0,1-.73.67,4.08,4.08,0,0,1-1,.49c1.84.39,2.76,1.37,2.76,2.93a3.63,3.63,0,0,1-.32,1.52,3.33,3.33,0,0,1-.9,1.19,4.09,4.09,0,0,1-1.45.77,6.25,6.25,0,0,1-2,.28h-4.75V71Zm18.14,13h-1.9a.8.8,0,0,1-.51-.16,1.63,1.63,0,0,1-.39-.48L131,78.83a1.4,1.4,0,0,0-.23-.29.82.82,0,0,0-.26-.2,1.1,1.1,0,0,0-.32-.11,2.54,2.54,0,0,0-.41,0h-1.49V84h-2.11V71h2.11v5.54h1.27a1.62,1.62,0,0,0,.66-.12,1.49,1.49,0,0,0,.53-.49l3.11-4.35a1.37,1.37,0,0,1,.37-.42.86.86,0,0,1,.53-.16h1.78l-3.71,5.26a2.45,2.45,0,0,1-.51.55,2.79,2.79,0,0,1-.64.34,2,2,0,0,1,.85.44,3,3,0,0,1,.68.84Zm8.46-4.86-1.8-4.73-.21-.62c-.08-.25-.15-.5-.23-.78-.06.28-.14.54-.21.78s-.15.45-.22.62l-1.78,4.73Zm4,4.86h-1.63a.73.73,0,0,1-.45-.13,1,1,0,0,1-.25-.36l-1.08-2.86h-5.59l-1.08,2.86a1,1,0,0,1-.25.34.67.67,0,0,1-.44.15h-1.64L142,71h2.13Zm5.23-11.74a5.08,5.08,0,0,1,1.74-1,6.7,6.7,0,0,1,2.26-.36,6.26,6.26,0,0,1,1.85.26,4.17,4.17,0,0,1,1.4.69A3,3,0,0,1,163,74.26a3.22,3.22,0,0,1-.46,1.69,3.07,3.07,0,0,1-1.29,1.17,4.49,4.49,0,0,1,.85.52,3.44,3.44,0,0,1,.66.66,2.69,2.69,0,0,1,.43.8,2.65,2.65,0,0,1,.16.89,4.06,4.06,0,0,1-.33,1.63,3.84,3.84,0,0,1-.93,1.31,4.39,4.39,0,0,1-1.51.88,6,6,0,0,1-2,.32,7.23,7.23,0,0,1-1.33-.13,7.8,7.8,0,0,1-1.22-.33,6.7,6.7,0,0,1-1.07-.54,6.35,6.35,0,0,1-.9-.7l.61-1a.66.66,0,0,1,.21-.2.53.53,0,0,1,.28-.07.58.58,0,0,1,.3.09l.37.23.48.3a6.7,6.7,0,0,0,.6.3,6.48,6.48,0,0,0,.77.22,4.58,4.58,0,0,0,1,.09,3.19,3.19,0,0,0,2-.59,2.05,2.05,0,0,0,.72-1.7,1.82,1.82,0,0,0-.72-1.51,2.45,2.45,0,0,0-.86-.41,3.82,3.82,0,0,0-1.11-.15h-1.81V76.3h1.68a4.08,4.08,0,0,0,1-.12,2.33,2.33,0,0,0,.78-.36,1.63,1.63,0,0,0,.49-.59,1.71,1.71,0,0,0,.18-.8,1.48,1.48,0,0,0-.17-.73,1.4,1.4,0,0,0-.47-.56,2.21,2.21,0,0,0-.79-.36,3.78,3.78,0,0,0-1.06-.14,4.08,4.08,0,0,0-1.18.15,5.66,5.66,0,0,0-.84.33c-.23.11-.42.22-.58.31a.8.8,0,0,1-.4.15.54.54,0,0,1-.27-.07.88.88,0,0,1-.2-.25Zm17.94,6.88-1.8-4.73-.21-.62c-.08-.25-.15-.5-.23-.78a7.32,7.32,0,0,1-.21.78,6.13,6.13,0,0,1-.22.62L168,79.14Zm4,4.86h-1.63a.77.77,0,0,1-.45-.13,1,1,0,0,1-.25-.36L173,80.65H167.4l-1.08,2.86a.85.85,0,0,1-.25.34.67.67,0,0,1-.44.15H164l5.14-13h2.13Zm10-1.65V72.69h-3.89c-.07,1.36-.17,2.56-.29,3.61s-.28,1.94-.45,2.72a13.43,13.43,0,0,1-.57,2,7.06,7.06,0,0,1-.67,1.35Zm4.18,0V86.5a.58.58,0,0,1-.19.44.64.64,0,0,1-.48.17h-1.26V84h-10v2.5a.58.58,0,0,1-.19.44.64.64,0,0,1-.48.17h-1.26V82.35h1.37a1.8,1.8,0,0,0,.52-.43,3.12,3.12,0,0,0,.51-.85,7.64,7.64,0,0,0,.46-1.38,18.7,18.7,0,0,0,.41-2q.18-1.22.3-2.85c.09-1.08.15-2.34.19-3.76h8V82.35Zm8.89-3.21-1.79-4.73c-.06-.18-.14-.39-.21-.62s-.16-.5-.23-.78a7.27,7.27,0,0,1-.22.78,6.33,6.33,0,0,1-.21.62L195,79.14Zm4,4.86h-1.63a.73.73,0,0,1-.45-.13.9.9,0,0,1-.25-.36L200,80.65h-5.59l-1.08,2.86a1,1,0,0,1-.25.34.67.67,0,0,1-.44.15H191l5.14-13h2.13Zm9.47-13V84h-2.12V78.62a17.94,17.94,0,0,1-2,.41,10.62,10.62,0,0,1-1.82.11,6.21,6.21,0,0,1-1.55-.24,3.25,3.25,0,0,1-1.2-.69,3.06,3.06,0,0,1-.77-1.17,5,5,0,0,1-.27-1.74V71h2.11V75.3a2.68,2.68,0,0,0,.3,1.34,1.67,1.67,0,0,0,1,.74,4.25,4.25,0,0,0,1.71.16,15.51,15.51,0,0,0,2.53-.44V71Z"/><path class="cls-10" d="M114.23,172h-1.9a.8.8,0,0,1-.51-.16,1.63,1.63,0,0,1-.39-.48l-3.07-4.53a1.18,1.18,0,0,0-.23-.29,1,1,0,0,0-.26-.2,1.17,1.17,0,0,0-.33-.11,2.41,2.41,0,0,0-.4,0h-1.5V172h-2.1V159h2.1v5.54h1.27a1.64,1.64,0,0,0,.67-.12,1.49,1.49,0,0,0,.53-.49l3.11-4.35a1.48,1.48,0,0,1,.36-.42.91.91,0,0,1,.54-.16h1.78l-3.71,5.26a2.45,2.45,0,0,1-.51.55,2.79,2.79,0,0,1-.64.34,2,2,0,0,1,.85.44,3.15,3.15,0,0,1,.68.84Zm13.23-6.48a7.34,7.34,0,0,1-.47,2.65,5.92,5.92,0,0,1-3.37,3.47,6.79,6.79,0,0,1-2.64.5,6.87,6.87,0,0,1-2.65-.5,5.95,5.95,0,0,1-3.36-3.47,7.73,7.73,0,0,1,0-5.31,6.1,6.1,0,0,1,1.32-2.09,6,6,0,0,1,2-1.38,6.87,6.87,0,0,1,2.65-.49,6.79,6.79,0,0,1,2.64.49,6,6,0,0,1,2,1.38,6.1,6.1,0,0,1,1.32,2.09A7.4,7.4,0,0,1,127.46,165.52Zm-2.15,0a6.06,6.06,0,0,0-.31-2,4.38,4.38,0,0,0-.86-1.51,3.84,3.84,0,0,0-1.36-.95,4.73,4.73,0,0,0-1.8-.34,4.64,4.64,0,0,0-1.79.34,3.79,3.79,0,0,0-1.37.95,4.25,4.25,0,0,0-.87,1.51,6.7,6.7,0,0,0,0,4,4.25,4.25,0,0,0,.87,1.51,3.77,3.77,0,0,0,1.37.94,4.64,4.64,0,0,0,1.79.33,4.73,4.73,0,0,0,1.8-.33,3.82,3.82,0,0,0,1.36-.94,4.38,4.38,0,0,0,.86-1.51A6.08,6.08,0,0,0,125.31,165.52ZM140.49,159v13h-2.1v-5.77h-6.51V172h-2.11V159h2.11v5.67h6.51V159Zm12.09,10.07a.41.41,0,0,1,.3.14l.84.9a5.38,5.38,0,0,1-1.95,1.48,6.75,6.75,0,0,1-2.75.51,6.66,6.66,0,0,1-2.58-.48,5.78,5.78,0,0,1-1.95-1.37,6.14,6.14,0,0,1-1.25-2.1,7.87,7.87,0,0,1-.43-2.67,7.41,7.41,0,0,1,.46-2.67,5.88,5.88,0,0,1,3.32-3.47,6.79,6.79,0,0,1,2.59-.48,6.12,6.12,0,0,1,2.47.46,5.88,5.88,0,0,1,1.88,1.2l-.7,1a.46.46,0,0,1-.17.17.41.41,0,0,1-.27.08.74.74,0,0,1-.41-.17c-.15-.11-.35-.23-.59-.37a4,4,0,0,0-.89-.36,4.15,4.15,0,0,0-1.33-.18,4.29,4.29,0,0,0-1.7.33,3.58,3.58,0,0,0-1.33.94,4.77,4.77,0,0,0-.88,1.51,6.37,6.37,0,0,0-.3,2,6.15,6.15,0,0,0,.32,2,4.73,4.73,0,0,0,.89,1.52,3.9,3.9,0,0,0,1.34.93,4.1,4.1,0,0,0,1.64.32,7.21,7.21,0,0,0,1-.05,3.53,3.53,0,0,0,1.46-.52,4,4,0,0,0,.64-.49A.58.58,0,0,1,152.58,169.11Zm11.87-8.31h-4V172h-2.09V160.8h-4V159h10.18Zm5.84,4.85a3.8,3.8,0,0,0,1.23-.18,2.34,2.34,0,0,0,.89-.51,2.1,2.1,0,0,0,.54-.8,2.87,2.87,0,0,0,.18-1,2.73,2.73,0,0,0-.18-1,1.92,1.92,0,0,0-.52-.77,2.43,2.43,0,0,0-.89-.47,3.9,3.9,0,0,0-1.25-.17h-1.93v5Zm0-6.61a7.18,7.18,0,0,1,2.2.3,4.15,4.15,0,0,1,1.53.83,3.24,3.24,0,0,1,.91,1.29,4.42,4.42,0,0,1,.3,1.66,4.51,4.51,0,0,1-.31,1.7,3.63,3.63,0,0,1-.94,1.32,4.38,4.38,0,0,1-1.55.87,6.87,6.87,0,0,1-2.14.3h-1.93V172h-2.1V159Zm16.94,0L182,170.24a4.39,4.39,0,0,1-.57.93,2.71,2.71,0,0,1-.65.58,2.38,2.38,0,0,1-.74.29,3.76,3.76,0,0,1-.85.09c-.75,0-1.13-.14-1.13-.41v-1.33h.66a2.1,2.1,0,0,0,.43,0,1.5,1.5,0,0,0,.42-.15,1.61,1.61,0,0,0,.39-.31,2.12,2.12,0,0,0,.35-.53l.57-1.18-5.2-9.13h2a.65.65,0,0,1,.43.13,1.39,1.39,0,0,1,.28.35l2.85,5.25a9,9,0,0,1,.6,1.46,6.34,6.34,0,0,1,.23-.74c.1-.24.2-.48.32-.73l2.44-5.24a1,1,0,0,1,.27-.33.65.65,0,0,1,.44-.15Zm12.18,0v13h-2.1v-8.6c0-.29,0-.59,0-.9s0-.65.1-1c-.12.31-.24.6-.37.87s-.26.5-.38.7l-5.49,8.28-.17.24a1.11,1.11,0,0,1-.22.21l-.25.16a.93.93,0,0,1-.29.05h-1.57V159h2.11v8.6c0,.28,0,.59,0,.9a8.67,8.67,0,0,1-.09,1c.12-.3.24-.59.36-.85s.26-.51.38-.7l5.49-8.28c.05-.08.1-.16.16-.24a2.09,2.09,0,0,1,.22-.2,1.22,1.22,0,0,1,.26-.16.72.72,0,0,1,.29-.06Zm7.13,6.61a3.88,3.88,0,0,0,1.23-.18,2.34,2.34,0,0,0,.89-.51,2.1,2.1,0,0,0,.54-.8,2.87,2.87,0,0,0,.18-1,2.73,2.73,0,0,0-.18-1,2,2,0,0,0-.52-.77,2.51,2.51,0,0,0-.89-.47,3.94,3.94,0,0,0-1.25-.17h-1.93v5Zm0-6.61a7.16,7.16,0,0,1,2.19.3,4.12,4.12,0,0,1,1.54.83,3.34,3.34,0,0,1,.91,1.29,4.42,4.42,0,0,1,.3,1.66,4.51,4.51,0,0,1-.32,1.7,3.61,3.61,0,0,1-.93,1.32,4.47,4.47,0,0,1-1.55.87,6.91,6.91,0,0,1-2.14.3h-1.93V172H202.5V159Zm19.13,6.48a7.34,7.34,0,0,1-.47,2.65,5.92,5.92,0,0,1-3.37,3.47,6.79,6.79,0,0,1-2.64.5,6.87,6.87,0,0,1-2.65-.5,5.95,5.95,0,0,1-3.36-3.47,7.73,7.73,0,0,1,0-5.31,6.1,6.1,0,0,1,1.32-2.09,6,6,0,0,1,2-1.38,6.87,6.87,0,0,1,2.65-.49,6.79,6.79,0,0,1,2.64.49,6,6,0,0,1,2,1.38,6.1,6.1,0,0,1,1.32,2.09A7.4,7.4,0,0,1,225.67,165.52Zm-2.15,0a6.33,6.33,0,0,0-.31-2,4.38,4.38,0,0,0-.86-1.51,3.84,3.84,0,0,0-1.36-.95,4.73,4.73,0,0,0-1.8-.34,4.64,4.64,0,0,0-1.79.34A3.79,3.79,0,0,0,216,162a4.42,4.42,0,0,0-.88,1.51,6.92,6.92,0,0,0,0,4,4.42,4.42,0,0,0,.88,1.51,3.77,3.77,0,0,0,1.37.94,4.64,4.64,0,0,0,1.79.33A4.73,4.73,0,0,0,221,170a3.82,3.82,0,0,0,1.36-.94,4.38,4.38,0,0,0,.86-1.51A6.35,6.35,0,0,0,223.52,165.52Zm9.17,4.81a3.83,3.83,0,0,0,1.2-.16,2,2,0,0,0,.8-.46,1.59,1.59,0,0,0,.45-.67,2.41,2.41,0,0,0,.14-.85,1.77,1.77,0,0,0-.63-1.44,3,3,0,0,0-2-.53h-2.6v4.11Zm-2.61-9.64v4.05h2.11a3.2,3.2,0,0,0,2-.53,1.76,1.76,0,0,0,.67-1.5,1.83,1.83,0,0,0-.63-1.55,3.29,3.29,0,0,0-2-.47Zm2.21-1.65a8.2,8.2,0,0,1,2.12.24,4,4,0,0,1,1.45.68,2.58,2.58,0,0,1,.83,1.08,3.56,3.56,0,0,1,.27,1.42,2.68,2.68,0,0,1-.15.89,2.49,2.49,0,0,1-.43.8,3,3,0,0,1-.73.67,4,4,0,0,1-1,.49c1.83.39,2.75,1.37,2.75,2.93a3.63,3.63,0,0,1-.31,1.52,3.57,3.57,0,0,1-.9,1.19,4.18,4.18,0,0,1-1.45.77,6.33,6.33,0,0,1-2,.28H228V159Zm14.11,8.1-1.79-4.73c-.07-.18-.14-.39-.22-.62s-.15-.5-.22-.78c-.07.28-.14.54-.22.78s-.14.44-.21.63L242,167.14Zm4,4.86h-1.63a.71.71,0,0,1-.7-.49L247,168.65h-5.59l-1.08,2.86a1,1,0,0,1-.26.34.63.63,0,0,1-.44.15H238l5.13-13h2.14Zm12.21-13v13h-2.11v-5.77H254V172h-2.12V159H254v5.67h6.5V159Zm13.82,0v13H274.3v-8.6c0-.29,0-.59,0-.9s.05-.65.1-1c-.12.31-.24.6-.37.87a6.32,6.32,0,0,1-.38.7l-5.49,8.28a1.77,1.77,0,0,1-.17.24,1.39,1.39,0,0,1-.21.21,2.26,2.26,0,0,1-.26.16.87.87,0,0,1-.28.05h-1.58V159h2.12v8.6c0,.28,0,.59,0,.9a8.67,8.67,0,0,1-.09,1,8.35,8.35,0,0,1,.36-.85,7.17,7.17,0,0,1,.38-.7l5.49-8.28a1.67,1.67,0,0,1,.16-.24,2,2,0,0,1,.21-.2,1.07,1.07,0,0,1,.27-.16.67.67,0,0,1,.28-.06Zm11.18,11.26V172H279.5V159h8.08v1.7h-6v3.91h4.77v1.64h-4.77v4Z"/><path class="cls-10" d="M114.27,342v13h-2.11v-8.6c0-.29,0-.59,0-.9s0-.65.1-1c-.12.31-.24.6-.37.87a6.32,6.32,0,0,1-.38.7L106,354.34a1.77,1.77,0,0,1-.17.24,1.11,1.11,0,0,1-.22.21,1.53,1.53,0,0,1-.25.16.88.88,0,0,1-.29.05h-1.57V342h2.11v8.6c0,.28,0,.59,0,.9s0,.65-.09,1a8.35,8.35,0,0,1,.36-.85,5.52,5.52,0,0,1,.38-.7l5.48-8.28.17-.24a2,2,0,0,1,.21-.2,1.22,1.22,0,0,1,.26-.16.72.72,0,0,1,.29-.06Zm12.09,10.07a.38.38,0,0,1,.29.14l.84.9a5.38,5.38,0,0,1-1.95,1.48,6.72,6.72,0,0,1-2.75.51,6.61,6.61,0,0,1-2.57-.48,5.82,5.82,0,0,1-2-1.37,6.3,6.3,0,0,1-1.25-2.1,7.87,7.87,0,0,1-.43-2.67,7.41,7.41,0,0,1,.46-2.67,6.08,6.08,0,0,1,1.31-2.1,5.89,5.89,0,0,1,2-1.37,6.82,6.82,0,0,1,2.59-.48,6.2,6.2,0,0,1,2.48.46,5.94,5.94,0,0,1,1.87,1.2l-.69,1a.69.69,0,0,1-.17.17.46.46,0,0,1-.27.08.79.79,0,0,1-.42-.17,6.76,6.76,0,0,0-.58-.37,4.21,4.21,0,0,0-.89-.36,4.26,4.26,0,0,0-1.34-.18,4.33,4.33,0,0,0-1.7.33,3.67,3.67,0,0,0-1.33.94,4.57,4.57,0,0,0-.87,1.51,6.1,6.1,0,0,0-.31,2,5.9,5.9,0,0,0,.33,2,4.39,4.39,0,0,0,.89,1.52,3.77,3.77,0,0,0,1.33.93,4.11,4.11,0,0,0,1.65.32,7,7,0,0,0,1-.05,3.66,3.66,0,0,0,.79-.19,3.89,3.89,0,0,0,.68-.33,4.55,4.55,0,0,0,.64-.49A.56.56,0,0,1,126.36,352.11Zm13.2,2.89h-2.11V343.69h-6V355h-2.11V342h10.25Zm7.47-1.67a4.08,4.08,0,0,0,1.2-.15,2.11,2.11,0,0,0,.8-.44,1.6,1.6,0,0,0,.44-.66,2.32,2.32,0,0,0,.15-.84,2.66,2.66,0,0,0-.14-.88,1.5,1.5,0,0,0-.44-.64,2.09,2.09,0,0,0-.8-.42,4.49,4.49,0,0,0-1.2-.14h-2.3v4.17Zm0-5.84a7.14,7.14,0,0,1,2.1.27,4.05,4.05,0,0,1,1.45.75,2.83,2.83,0,0,1,.83,1.12,3.55,3.55,0,0,1,.27,1.39,4.15,4.15,0,0,1-.32,1.65,3.36,3.36,0,0,1-.9,1.25,3.88,3.88,0,0,1-1.46.8,6.36,6.36,0,0,1-2,.28h-4.4V342h2.11v5.45Zm8.89,7.51h-2.12V342h2.12Zm12-11.2h-4V355h-2.1V343.8h-4.05V342h10.19Zm7.39,6.34-1.79-4.73c-.06-.18-.14-.39-.21-.62s-.16-.5-.23-.78q-.11.42-.21.78c-.08.24-.15.44-.22.63l-1.78,4.72Zm4,4.86h-1.63a.73.73,0,0,1-.45-.14.81.81,0,0,1-.25-.35l-1.08-2.86h-5.59l-1.08,2.86a1,1,0,0,1-.25.34.67.67,0,0,1-.44.15h-1.64L172,342h2.13Zm12.22-13v13H189.4v-5.77h-6.51V355h-2.11V342h2.11v5.67h6.51V342Zm13.81,0v13h-2.1v-8.6c0-.29,0-.59,0-.9s.06-.65.1-1a6.89,6.89,0,0,1-.37.87,6.37,6.37,0,0,1-.37.7l-5.49,8.28-.17.24a1.47,1.47,0,0,1-.22.21l-.25.16a.93.93,0,0,1-.29.05h-1.58V342h2.12v8.6c0,.28,0,.59,0,.9a8.67,8.67,0,0,1-.09,1c.12-.3.24-.59.36-.85a7.17,7.17,0,0,1,.38-.7l5.49-8.28.16-.24a2.09,2.09,0,0,1,.22-.2,1,1,0,0,1,.26-.16.72.72,0,0,1,.29-.06ZM216.5,353.3V355h-8.08V342h8.08v1.7h-6v3.91h4.77v1.64h-4.77v4Z"/><path class="cls-10" d="M19.79,263H17.67V251.69h-6V263H9.54V250H19.79Zm7.11-6.35a3.88,3.88,0,0,0,1.23-.18A2.34,2.34,0,0,0,29,256a2.1,2.1,0,0,0,.54-.8,2.87,2.87,0,0,0,.18-1,2.73,2.73,0,0,0-.18-1,2,2,0,0,0-.52-.77,2.51,2.51,0,0,0-.89-.47,3.94,3.94,0,0,0-1.25-.17H25v5Zm0-6.61a7.16,7.16,0,0,1,2.19.3,4.12,4.12,0,0,1,1.54.83,3.34,3.34,0,0,1,.91,1.29,4.42,4.42,0,0,1,.3,1.66,4.51,4.51,0,0,1-.32,1.7,3.61,3.61,0,0,1-.93,1.32A4.47,4.47,0,0,1,29,258a6.91,6.91,0,0,1-2.14.3H25V263H22.86V250ZM46,256.52a7.34,7.34,0,0,1-.47,2.65,5.92,5.92,0,0,1-3.37,3.47,6.79,6.79,0,0,1-2.64.5,6.87,6.87,0,0,1-2.65-.5,6.16,6.16,0,0,1-2-1.37,6.32,6.32,0,0,1-1.33-2.1,7.89,7.89,0,0,1,0-5.31,6.28,6.28,0,0,1,1.33-2.09,6,6,0,0,1,2-1.38,6.87,6.87,0,0,1,2.65-.49,6.79,6.79,0,0,1,2.64.49,6,6,0,0,1,2.05,1.38,6.1,6.1,0,0,1,1.32,2.09A7.4,7.4,0,0,1,46,256.52Zm-2.15,0a6.33,6.33,0,0,0-.31-2,4.38,4.38,0,0,0-.86-1.51,3.84,3.84,0,0,0-1.36-.95,4.73,4.73,0,0,0-1.8-.34,4.64,4.64,0,0,0-1.79.34,3.79,3.79,0,0,0-1.37.95,4.42,4.42,0,0,0-.88,1.51,6.92,6.92,0,0,0,0,4,4.42,4.42,0,0,0,.88,1.51,3.77,3.77,0,0,0,1.37.94,4.64,4.64,0,0,0,1.79.33,4.73,4.73,0,0,0,1.8-.33,3.82,3.82,0,0,0,1.36-.94,4.38,4.38,0,0,0,.86-1.51A6.35,6.35,0,0,0,43.88,256.52Zm12.36-4.83H50.45V263H48.33V250h7.91Zm5.83,5a3.8,3.8,0,0,0,1.23-.18,2.34,2.34,0,0,0,.89-.51,2.1,2.1,0,0,0,.54-.8,2.87,2.87,0,0,0,.18-1,2.73,2.73,0,0,0-.18-1,2,2,0,0,0-.52-.77,2.43,2.43,0,0,0-.89-.47,3.9,3.9,0,0,0-1.25-.17H60.14v5Zm0-6.61a7.07,7.07,0,0,1,2.19.3,4.12,4.12,0,0,1,1.54.83,3.34,3.34,0,0,1,.91,1.29,4.42,4.42,0,0,1,.3,1.66,4.51,4.51,0,0,1-.32,1.7,3.49,3.49,0,0,1-.93,1.32,4.38,4.38,0,0,1-1.55.87,6.91,6.91,0,0,1-2.14.3H60.14V263H58V250ZM75,258.14l-1.79-4.73-.21-.62c-.08-.24-.16-.5-.23-.78-.06.28-.14.54-.21.78s-.15.44-.22.63l-1.78,4.72ZM79,263H77.33a.73.73,0,0,1-.45-.14.9.9,0,0,1-.25-.35l-1.08-2.86H70l-1.08,2.86a1,1,0,0,1-.25.34.67.67,0,0,1-.44.15H66.55l5.14-13h2.13Zm15.28-13v13H92.38v-8.88c0-.15,0-.3,0-.47s0-.35,0-.52l-4.17,7.69a.79.79,0,0,1-.75.48h-.29a.78.78,0,0,1-.75-.48l-4.23-7.71c0,.17,0,.35,0,.52s0,.34,0,.49V263H80.45V250H82a1.66,1.66,0,0,1,.44.05c.1,0,.19.13.28.3l4.15,7.53c.09.18.18.36.26.54s.15.37.22.56c.07-.19.15-.38.23-.57s.17-.37.26-.54L92,250.39c.09-.17.18-.27.28-.3a1.58,1.58,0,0,1,.43-.05Zm16.86,0v13h-1.86v-8.88c0-.15,0-.3,0-.47s0-.35,0-.52l-4.16,7.69a.79.79,0,0,1-.75.48h-.3a.77.77,0,0,1-.74-.48l-4.23-7.71c0,.17,0,.35,0,.52s0,.34,0,.49V263H97.31V250h1.57a1.53,1.53,0,0,1,.43.05c.11,0,.2.13.28.3l4.16,7.53c.09.18.18.36.25.54a5.48,5.48,0,0,1,.23.56l.22-.57c.09-.19.17-.37.26-.54l4.1-7.52a.52.52,0,0,1,.28-.3,1.53,1.53,0,0,1,.43-.05Zm13.79,0v13h-2.1v-8.6c0-.29,0-.59,0-.9s.06-.65.1-1a6.89,6.89,0,0,1-.37.87,6.37,6.37,0,0,1-.37.7l-5.49,8.28-.17.24a2.18,2.18,0,0,1-.22.21L116,263a.93.93,0,0,1-.29.05h-1.58V250h2.12v8.6c0,.28,0,.59,0,.9a8.67,8.67,0,0,1-.09,1c.12-.3.24-.59.36-.85a7.17,7.17,0,0,1,.38-.7l5.49-8.28c0-.08.1-.16.16-.24a2.09,2.09,0,0,1,.22-.2,1,1,0,0,1,.26-.16.68.68,0,0,1,.29-.06Zm7.12,6.61a3.8,3.8,0,0,0,1.23-.18,2.46,2.46,0,0,0,.9-.51,2.1,2.1,0,0,0,.54-.8,2.87,2.87,0,0,0,.18-1,2.73,2.73,0,0,0-.18-1,2,2,0,0,0-.53-.77,2.43,2.43,0,0,0-.89-.47,3.9,3.9,0,0,0-1.25-.17h-1.92v5Zm0-6.61a7.18,7.18,0,0,1,2.2.3,4.2,4.2,0,0,1,1.54.83,3.45,3.45,0,0,1,.91,1.29,4.63,4.63,0,0,1,.29,1.66,4.51,4.51,0,0,1-.31,1.7,3.52,3.52,0,0,1-.94,1.32,4.38,4.38,0,0,1-1.55.87,6.87,6.87,0,0,1-2.14.3h-1.92V263H128V250Zm19.13,6.48a7.34,7.34,0,0,1-.46,2.65,6.32,6.32,0,0,1-1.33,2.1,6,6,0,0,1-2,1.37,7.25,7.25,0,0,1-5.29,0,6,6,0,0,1-3.37-3.47,7.73,7.73,0,0,1,0-5.31,6.08,6.08,0,0,1,3.37-3.47,7.38,7.38,0,0,1,5.29,0,5.84,5.84,0,0,1,2,1.38,6.28,6.28,0,0,1,1.33,2.09A7.4,7.4,0,0,1,151.14,256.52Zm-2.15,0a6.33,6.33,0,0,0-.3-2,4.25,4.25,0,0,0-.87-1.51,3.67,3.67,0,0,0-1.36-.95,4.91,4.91,0,0,0-3.59,0,3.75,3.75,0,0,0-1.36.95,4.42,4.42,0,0,0-.88,1.51,6.92,6.92,0,0,0,0,4,4.42,4.42,0,0,0,.88,1.51,3.73,3.73,0,0,0,1.36.94,5,5,0,0,0,3.59,0,3.65,3.65,0,0,0,1.36-.94,4.25,4.25,0,0,0,.87-1.51A6.35,6.35,0,0,0,149,256.52Zm9.18,4.81a3.72,3.72,0,0,0,1.19-.16,2,2,0,0,0,.8-.46,1.61,1.61,0,0,0,.46-.67,2.66,2.66,0,0,0,.14-.85,1.77,1.77,0,0,0-.63-1.44,3,3,0,0,0-2-.53h-2.6v4.11Zm-2.61-9.64v4.05h2.1a3.23,3.23,0,0,0,2-.53,1.79,1.79,0,0,0,.67-1.5,1.83,1.83,0,0,0-.64-1.55,3.25,3.25,0,0,0-2-.47Zm2.2-1.65a8.23,8.23,0,0,1,2.13.24,4.07,4.07,0,0,1,1.45.68,2.56,2.56,0,0,1,.82,1.08,3.56,3.56,0,0,1,.27,1.42,3,3,0,0,1-.14.89,2.71,2.71,0,0,1-.43.8,3.37,3.37,0,0,1-.73.67,4.08,4.08,0,0,1-1,.49c1.84.39,2.76,1.37,2.76,2.93a3.63,3.63,0,0,1-.32,1.52,3.33,3.33,0,0,1-.9,1.19,4.09,4.09,0,0,1-1.45.77,6.25,6.25,0,0,1-2,.28h-4.75V250Zm14.12,8.1-1.8-4.73-.21-.62c-.08-.24-.16-.5-.23-.78a7.32,7.32,0,0,1-.21.78c-.08.24-.15.44-.22.63l-1.78,4.72Zm4,4.86h-1.63a.73.73,0,0,1-.45-.14.9.9,0,0,1-.25-.35l-1.08-2.86h-5.59l-1.08,2.86a.85.85,0,0,1-.25.34.67.67,0,0,1-.44.15h-1.64l5.14-13h2.13Zm12.22-13v13H186v-5.77h-6.5V263h-2.12V250h2.12v5.67H186V250Zm13.81,0v13h-2.1v-8.6c0-.29,0-.59,0-.9a9.57,9.57,0,0,1,.1-1c-.12.31-.24.6-.37.87s-.26.5-.38.7l-5.49,8.28-.17.24a1.47,1.47,0,0,1-.22.21L193,263a.93.93,0,0,1-.29.05h-1.57V250h2.11v8.6c0,.28,0,.59,0,.9a8.67,8.67,0,0,1-.09,1c.12-.3.24-.59.36-.85s.26-.51.38-.7l5.49-8.28c.05-.08.1-.16.16-.24a2.09,2.09,0,0,1,.22-.2,1,1,0,0,1,.26-.16.72.72,0,0,1,.29-.06Zm11.18,11.26V263H205V250h8.08v1.7h-6v3.91h4.77v1.64h-4.77v4Z"/><path class="cls-10" d="M77.33,432v13H75.47v-8.88c0-.15,0-.3,0-.47s0-.35,0-.52l-4.17,7.69a.79.79,0,0,1-.75.48h-.29a.77.77,0,0,1-.75-.48l-4.23-7.71c0,.17,0,.35,0,.52s0,.34,0,.49V445H63.54V432h1.57a1.66,1.66,0,0,1,.44,0,.51.51,0,0,1,.27.3L70,439.92c.09.18.18.36.26.54s.15.37.22.56c.07-.19.15-.38.22-.56s.18-.38.27-.55L75,432.39c.09-.17.18-.27.28-.3a1.58,1.58,0,0,1,.43,0Zm15.24,6.48a7.34,7.34,0,0,1-.46,2.65,6.32,6.32,0,0,1-1.33,2.1,6,6,0,0,1-2,1.37,7.25,7.25,0,0,1-5.29,0,5.92,5.92,0,0,1-3.37-3.47,7.73,7.73,0,0,1,0-5.31,6,6,0,0,1,3.37-3.47,7.38,7.38,0,0,1,5.29,0,5.84,5.84,0,0,1,2,1.38,6.28,6.28,0,0,1,1.33,2.09A7.4,7.4,0,0,1,92.57,438.52Zm-2.15,0a6.33,6.33,0,0,0-.3-2,4.16,4.16,0,0,0-.87-1.51,3.67,3.67,0,0,0-1.36-.95,4.91,4.91,0,0,0-3.59,0,3.88,3.88,0,0,0-1.37.95,4.47,4.47,0,0,0-.87,1.51,6.92,6.92,0,0,0,0,4,4.57,4.57,0,0,0,.87,1.51,3.85,3.85,0,0,0,1.37.94,5,5,0,0,0,3.59,0,3.65,3.65,0,0,0,1.36-.94,4.25,4.25,0,0,0,.87-1.51A6.35,6.35,0,0,0,90.42,438.52Zm12.17,4.83v-9.66H98.7c-.07,1.36-.17,2.56-.3,3.61A25.25,25.25,0,0,1,98,440a12.39,12.39,0,0,1-.56,2,7.06,7.06,0,0,1-.67,1.35Zm4.17,0v4.15a.55.55,0,0,1-.19.44.61.61,0,0,1-.47.17h-1.26V445h-10v2.5a.55.55,0,0,1-.19.44.62.62,0,0,1-.47.17H93v-4.76h1.37a1.94,1.94,0,0,0,.52-.43,3.2,3.2,0,0,0,.51-.84,9,9,0,0,0,.46-1.39,16.76,16.76,0,0,0,.4-2c.13-.81.23-1.76.31-2.85s.15-2.34.19-3.76h8v11.31ZM119.46,432v13h-2.11v-8.6c0-.29,0-.59,0-.9s0-.65.1-1a8.75,8.75,0,0,1-.37.87,5,5,0,0,1-.38.7l-5.49,8.28a1.18,1.18,0,0,1-.17.24,1,1,0,0,1-.21.21l-.25.16a1,1,0,0,1-.29.05h-1.58V432h2.12v8.6c0,.28,0,.59,0,.9a8.67,8.67,0,0,1-.09,1,8.35,8.35,0,0,1,.36-.85,7.17,7.17,0,0,1,.38-.7L117,432.7l.16-.24a2.09,2.09,0,0,1,.22-.2,1,1,0,0,1,.26-.16.68.68,0,0,1,.29-.06Zm9.69,9.76a3.54,3.54,0,0,0,1.4-.3,3.42,3.42,0,0,0,1.79-1.9,3.93,3.93,0,0,0,0-2.76,3.35,3.35,0,0,0-.7-1.14,3.15,3.15,0,0,0-1.09-.76,3.55,3.55,0,0,0-1.4-.31Zm-2-7.17a3.64,3.64,0,0,0-1.42.31,3.2,3.2,0,0,0-1.08.76,3.69,3.69,0,0,0-.7,1.14,4.09,4.09,0,0,0,0,2.76,3.48,3.48,0,0,0,.7,1.12,3.25,3.25,0,0,0,1.08.78,3.64,3.64,0,0,0,1.42.3Zm2-1.64a6.8,6.8,0,0,1,1.54.23,5.77,5.77,0,0,1,1.35.54,5.41,5.41,0,0,1,1.93,1.87,4.88,4.88,0,0,1,.52,1.22,4.8,4.8,0,0,1,.19,1.36,5,5,0,0,1-1.54,3.65A5.48,5.48,0,0,1,131.4,443a6.06,6.06,0,0,1-2.25.46V445h-2v-1.56a6.06,6.06,0,0,1-2.25-.46,5.58,5.58,0,0,1-1.76-1.12,5.11,5.11,0,0,1-1.13-1.65,5,5,0,0,1,1.15-5.63,5.67,5.67,0,0,1,1.75-1.13,6.48,6.48,0,0,1,2.24-.46v-1.52h2Zm18.42-.95v13h-2.11v-8.6c0-.29,0-.59,0-.9s.05-.65.1-1c-.12.31-.24.6-.37.87a6.32,6.32,0,0,1-.38.7l-5.49,8.28a1.77,1.77,0,0,1-.17.24,1,1,0,0,1-.21.21,2.26,2.26,0,0,1-.26.16.88.88,0,0,1-.29.05h-1.57V432H139v8.6c0,.28,0,.59,0,.9a8.67,8.67,0,0,1-.09,1,8.35,8.35,0,0,1,.36-.85,7.17,7.17,0,0,1,.38-.7l5.49-8.28a1.67,1.67,0,0,1,.16-.24,2,2,0,0,1,.21-.2,1.28,1.28,0,0,1,.27-.16A.64.64,0,0,1,146,432Zm13.78,13h-1.9a.76.76,0,0,1-.51-.16,1.63,1.63,0,0,1-.39-.48l-3.07-4.53a2,2,0,0,0-.23-.29,1,1,0,0,0-.26-.2.92.92,0,0,0-.33-.11,2.41,2.41,0,0,0-.4,0h-1.5V445h-2.1V432h2.1v5.54H154a1.67,1.67,0,0,0,.67-.12,1.58,1.58,0,0,0,.53-.49l3.1-4.35a1.51,1.51,0,0,1,.37-.42.88.88,0,0,1,.53-.16H161l-3.7,5.26a2.06,2.06,0,0,1-.52.54,2.33,2.33,0,0,1-.64.35,2,2,0,0,1,.86.44,3,3,0,0,1,.67.84Zm8.45-4.86L168,435.41c-.07-.18-.14-.39-.22-.63s-.15-.49-.22-.77c-.07.28-.14.54-.22.78s-.14.44-.21.62l-1.79,4.73Zm4,4.86h-1.63a.67.67,0,0,1-.45-.14.81.81,0,0,1-.25-.35l-1.08-2.86h-5.59l-1.08,2.86a1,1,0,0,1-.25.34.67.67,0,0,1-.44.15h-1.64l5.14-13h2.13Zm13.65-1.65v4.15a.55.55,0,0,1-.19.44.64.64,0,0,1-.48.17h-1.25V445H175.27V432h2.11v11.31h6V432h2.12v11.31ZM200.16,432v13h-2.1v-8.6c0-.29,0-.59,0-.9s.06-.65.1-1a6.89,6.89,0,0,1-.37.87,6.37,6.37,0,0,1-.37.7l-5.49,8.28a1.88,1.88,0,0,1-.18.24.84.84,0,0,1-.21.21l-.25.16a.93.93,0,0,1-.29.05h-1.58V432h2.12v8.6c0,.28,0,.59,0,.9a8.67,8.67,0,0,1-.09,1c.12-.3.24-.59.36-.85a7.17,7.17,0,0,1,.38-.7l5.49-8.28.16-.24a2.09,2.09,0,0,1,.22-.2,1,1,0,0,1,.26-.16.72.72,0,0,1,.29-.06ZM214,432v13h-2.11v-8.6c0-.29,0-.59,0-.9s.05-.65.1-1a8.75,8.75,0,0,1-.37.87,6.32,6.32,0,0,1-.38.7l-5.49,8.28a1.77,1.77,0,0,1-.17.24,1,1,0,0,1-.21.21,2.26,2.26,0,0,1-.26.16.88.88,0,0,1-.29.05h-1.57V432h2.12v8.6c0,.28,0,.59,0,.9a8.67,8.67,0,0,1-.09,1,8.35,8.35,0,0,1,.36-.85,7.17,7.17,0,0,1,.38-.7l5.49-8.28a1.67,1.67,0,0,1,.16-.24,2,2,0,0,1,.21-.2,1.07,1.07,0,0,1,.27-.16.67.67,0,0,1,.28-.06Z"/><path class="cls-11" d="M89.72,345.54a2.76,2.76,0,0,0,0,2.83L110,382.22a3,3,0,0,0,2.54,1.42h102.8a3,3,0,0,1,2.54,1.41l30.41,50.85a2.72,2.72,0,0,1,0,2.83l-30.41,50.85a3,3,0,0,1-2.54,1.41H70.06V474H205.15a3,3,0,0,0,2.53-1.41l20.26-33.86a2.76,2.76,0,0,0,0-2.83l-20.26-33.86a3,3,0,0,0-2.53-1.41H102.35a2.94,2.94,0,0,1-2.54-1.42L69.39,348.37a2.76,2.76,0,0,1,0-2.83l30.42-50.85a3,3,0,0,1,2.54-1.41h56.86v-.1h47.28a3,3,0,0,0,2.54-1.41l20.25-33.87a2.74,2.74,0,0,0,0-2.82L209,221.22a3,3,0,0,0-2.54-1.41H104.14a3,3,0,0,1-2.54-1.42L71.19,167.55a2.74,2.74,0,0,1,0-2.82l30.41-50.85a3,3,0,0,1,2.54-1.42h50.8v-.1h47.28a2.94,2.94,0,0,0,2.54-1.42L225,77.08a2.7,2.7,0,0,0,0-2.82L204.76,40.4A3,3,0,0,0,202.22,39H169.6v.11H69.48v-17h85.46V22h57.45a3,3,0,0,1,2.54,1.41l30.41,50.85a2.74,2.74,0,0,1,0,2.82l-30.41,50.85a3,3,0,0,1-2.54,1.42h-50.8v.1H114.31a3,3,0,0,0-2.54,1.42L91.51,164.73a2.74,2.74,0,0,0,0,2.82l20.26,33.86a3,3,0,0,0,2.54,1.42H216.66a3,3,0,0,1,2.53,1.41l30.42,50.85a2.74,2.74,0,0,1,0,2.82l-30.42,50.86a3,3,0,0,1-2.53,1.41H159.79v.1H112.51a3,3,0,0,0-2.54,1.41Z"/><path class="cls-1" d="M22.77,272.14A4.28,4.28,0,0,1,26.54,270l35.1.54a4.29,4.29,0,0,1,3.66,2.18l17.56,31a4.26,4.26,0,0,1,0,4.26L65.24,338.38a4.31,4.31,0,0,1-3.78,2.14L26.37,340a4.28,4.28,0,0,1-3.66-2.17l-17.56-31a4.29,4.29,0,0,1,0-4.26Z"/><path class="cls-12" d="M26.53,270.86l35.09.54a3.42,3.42,0,0,1,2.93,1.74l17.56,31a3.43,3.43,0,0,1,0,3.41L64.5,338a3.45,3.45,0,0,1-3,1.71l-35.1-.55a3.43,3.43,0,0,1-2.93-1.73l-17.55-31a3.43,3.43,0,0,1,0-3.41l17.6-30.37A3.42,3.42,0,0,1,26.53,270.86Z"/><path class="cls-13" d="M29.59,301.33A8.47,8.47,0,0,1,32.51,300a6.14,6.14,0,0,1,3.1,0,8.35,8.35,0,0,1,3.18,1.55A14.91,14.91,0,0,1,42,304.78a14.37,14.37,0,0,1,2.13,4.06,9,9,0,0,1,.4,3.56,7.29,7.29,0,0,1-1,3,8.36,8.36,0,0,1-2.13,2.27,9.26,9.26,0,0,1-2.93,1.43,6.58,6.58,0,0,1-3.12,0,8.74,8.74,0,0,1-3.22-1.55,15.61,15.61,0,0,1-3.15-3.36,13.46,13.46,0,0,1-2.06-4,9.09,9.09,0,0,1-.4-3.6,7.24,7.24,0,0,1,1-3A7.91,7.91,0,0,1,29.59,301.33Zm2.77,10.38a15.5,15.5,0,0,0,2.26,2.59,6.72,6.72,0,0,0,1.94,1.27,3.48,3.48,0,0,0,1.67.2,3.56,3.56,0,0,0,1.36-.6,3.09,3.09,0,0,0,.95-1.11,2.87,2.87,0,0,0,.31-1.63,6.79,6.79,0,0,0-.59-2.24,16.48,16.48,0,0,0-1.74-2.93,15.35,15.35,0,0,0-2.24-2.57,6.22,6.22,0,0,0-1.92-1.24,2.72,2.72,0,0,0-1.63-.2,3.23,3.23,0,0,0-1.35.56,3.36,3.36,0,0,0-1,1.13,3.19,3.19,0,0,0-.35,1.62,6.73,6.73,0,0,0,.59,2.24A15.35,15.35,0,0,0,32.36,311.71Zm11.91-20.57,3.85-2.78L55,297.91l2.3-1.66,1.87,2.58-2.31,1.66,2.63,3.63-3.18,2.29-2.62-3.62-7.31,5.28-1.54-2.13Zm3.47,6.22L48,303l3.9-2.82-2.56-3.55-2-3.14,0,0Z"/></svg>