<svg width="22" height="22" viewBox="0 0 22 22" fill="none" xmlns="http://www.w3.org/2000/svg">
<path d="M10.3442 12.8332C9.31063 12.719 8.38043 12.4496 7.58312 11.7896C7.48379 11.7078 7.38177 11.6288 7.29184 11.5358C6.94285 11.1832 6.90661 10.7756 7.18446 10.3582C7.41936 9.99998 7.81533 9.90408 8.22875 10.1086C8.30846 10.1498 8.38478 10.1979 8.45694 10.2524C9.94284 11.3327 11.9844 11.3623 13.477 10.3004C13.6205 10.1773 13.7863 10.0862 13.9643 10.0324C14.1293 9.98162 14.3059 9.99073 14.4654 10.0583C14.6249 10.1258 14.7581 10.2479 14.8435 10.4047C15.0623 10.7813 15.0583 11.1479 14.7898 11.4399C14.3781 11.8799 13.8802 12.2205 13.3307 12.4383C12.8099 12.6527 12.2381 12.7599 11.673 12.8318C11.7589 12.9305 11.7992 12.9784 11.8529 13.0349C12.6193 13.85 13.3898 14.6623 14.1549 15.4803C14.4153 15.7595 14.4703 16.105 14.3267 16.4294C14.1697 16.7819 13.818 17.016 13.4744 16.9906C13.2658 16.9686 13.073 16.8643 12.9348 16.6987C12.3562 16.0824 11.767 15.4774 11.1992 14.8499C11.0341 14.6665 10.9536 14.7018 10.8086 14.8597C10.2261 15.4944 9.63411 16.1191 9.03814 16.741C8.77103 17.0189 8.45291 17.0696 8.14285 16.9103C7.98401 16.8316 7.85014 16.7065 7.75729 16.5499C7.66443 16.3933 7.61654 16.2119 7.61936 16.0274C7.63675 15.7991 7.7378 15.5867 7.90124 15.4351L10.1751 13.025C10.2247 12.9714 10.2717 12.915 10.3442 12.8332Z" fill="#F3FBFF"/>
<path d="M10.9771 9.99998C10.1845 9.99301 9.42675 9.673 8.86908 9.10969C8.31141 8.54639 7.99902 7.78546 8 6.99279C8.00381 6.1967 8.32314 5.43459 8.88796 4.87357C9.45279 4.31256 10.217 3.99841 11.0131 4.00001C11.4091 4.00219 11.8007 4.08266 12.1654 4.23676C12.5302 4.39087 12.8608 4.61557 13.1384 4.89796C13.416 5.18034 13.635 5.51482 13.7828 5.88216C13.9307 6.2495 14.0044 6.64245 13.9998 7.03839C13.9914 8.67758 12.6354 10.006 10.9771 9.99998ZM12.4699 6.99759C12.4703 6.80474 12.4326 6.61371 12.3589 6.43549C12.2853 6.25727 12.177 6.0954 12.0405 5.95921C11.904 5.82301 11.7418 5.71518 11.5635 5.64192C11.3851 5.56867 11.1939 5.53145 11.0011 5.5324C10.8067 5.53143 10.6141 5.56918 10.4345 5.64345C10.2548 5.71772 10.0918 5.82701 9.95484 5.96497C9.8179 6.10292 9.7098 6.26677 9.63685 6.44694C9.5639 6.62712 9.52756 6.82002 9.52995 7.01439C9.53089 7.20725 9.56998 7.39801 9.64498 7.57569C9.71997 7.75337 9.82939 7.91445 9.96693 8.04964C10.1045 8.18484 10.2674 8.29148 10.4463 8.36342C10.6253 8.43535 10.8167 8.47116 11.0095 8.46879C11.2022 8.46895 11.3931 8.43093 11.571 8.35692C11.749 8.28291 11.9105 8.17438 12.0463 8.03759C12.1821 7.9008 12.2894 7.73847 12.3621 7.55997C12.4348 7.38146 12.4714 7.19033 12.4699 6.99759Z" fill="#F3FBFF"/>
<path fill-rule="evenodd" clip-rule="evenodd" d="M6.465 0.066C7.638 0.012 8.012 0 11 0C13.988 0 14.362 0.013 15.534 0.066C16.706 0.119 17.506 0.306 18.206 0.577C18.939 0.854 19.604 1.287 20.154 1.847C20.714 2.396 21.146 3.06 21.422 3.794C21.694 4.494 21.88 5.294 21.934 6.464C21.988 7.639 22 8.013 22 11C22 13.988 21.987 14.362 21.934 15.535C21.881 16.705 21.694 17.505 21.422 18.205C21.146 18.9391 20.7133 19.6042 20.154 20.154C19.604 20.714 18.939 21.146 18.206 21.422C17.506 21.694 16.706 21.88 15.536 21.934C14.362 21.988 13.988 22 11 22C8.012 22 7.638 21.987 6.465 21.934C5.295 21.881 4.495 21.694 3.795 21.422C3.06092 21.146 2.39582 20.7133 1.846 20.154C1.28638 19.6047 0.853315 18.9399 0.577 18.206C0.306 17.506 0.12 16.706 0.066 15.536C0.012 14.361 0 13.987 0 11C0 8.012 0.013 7.638 0.066 6.466C0.119 5.294 0.306 4.494 0.577 3.794C0.853723 3.06008 1.28712 2.39531 1.847 1.846C2.39604 1.2865 3.06047 0.853443 3.794 0.577C4.494 0.306 5.295 0.12 6.465 0.066ZM15.445 2.046C14.285 1.993 13.937 1.982 11 1.982C8.063 1.982 7.715 1.993 6.555 2.046C5.482 2.095 4.9 2.274 4.512 2.425C3.999 2.625 3.632 2.862 3.247 3.247C2.88205 3.60205 2.60118 4.03428 2.425 4.512C2.274 4.9 2.095 5.482 2.046 6.555C1.993 7.715 1.982 8.063 1.982 11C1.982 13.937 1.993 14.285 2.046 15.445C2.095 16.518 2.274 17.1 2.425 17.488C2.601 17.965 2.882 18.398 3.247 18.753C3.602 19.118 4.035 19.399 4.512 19.575C4.9 19.726 5.482 19.905 6.555 19.954C7.715 20.007 8.062 20.018 11 20.018C13.938 20.018 14.285 20.007 15.445 19.954C16.518 19.905 17.1 19.726 17.488 19.575C18.001 19.375 18.368 19.138 18.753 18.753C19.118 18.398 19.399 17.965 19.575 17.488C19.726 17.1 19.905 16.518 19.954 15.445C20.007 14.285 20.018 13.937 20.018 11C20.018 8.063 20.007 7.715 19.954 6.555C19.905 5.482 19.726 4.9 19.575 4.512C19.375 3.999 19.138 3.632 18.753 3.247C18.3979 2.88207 17.9657 2.60121 17.488 2.425C17.1 2.274 16.518 2.095 15.445 2.046Z" fill="#F3FBFF"/>
</svg>
