<svg width="17" height="20" viewBox="0 0 17 20" fill="none" xmlns="http://www.w3.org/2000/svg">
<path d="M8.76272 0.0168759C9.80985 0 10.851 0.0100005 11.8909 0C11.9539 1.27569 12.3944 2.57514 13.2909 3.47706C14.1856 4.40148 15.4511 4.82463 16.6825 4.96776V8.32357C15.5285 8.28419 14.3692 8.03418 13.3221 7.51665C12.866 7.30164 12.4412 7.02475 12.0253 6.74161C12.0199 9.17674 12.0349 11.6087 12.0103 14.0339C11.9479 15.1989 11.5789 16.3584 10.9284 17.3184C9.88186 18.9166 8.06544 19.9586 6.19982 19.9911C5.05548 20.0592 3.91235 19.7342 2.93723 19.1354C1.32124 18.1428 0.184103 16.3259 0.0184828 14.3758C-0.00237879 13.9628 -0.00558236 13.549 0.00888164 13.1357C0.152899 11.55 0.905989 10.033 2.07493 9.00111C3.39989 7.79917 5.25591 7.22664 6.99371 7.5654C7.00992 8.79984 6.96251 10.033 6.96251 11.2675C6.16862 11 5.2409 11.075 4.54722 11.5769C4.03971 11.9251 3.65618 12.4375 3.45569 13.0351C3.29007 13.4576 3.33748 13.927 3.34708 14.3758C3.5373 15.7433 4.79985 16.8928 6.14761 16.7684C7.04112 16.7584 7.89742 16.2184 8.36308 15.4277C8.51369 15.1508 8.68231 14.8677 8.69132 14.542C8.76993 13.0513 8.73872 11.5669 8.74832 10.0762C8.75492 6.71661 8.73872 3.36643 8.76332 0.0175009L8.76272 0.0168759Z" fill="#F3FBFF"/>
</svg>
